<svg xmlns="http://www.w3.org/2000/svg" width="559" height="377" viewBox="0 0 559 377">
  <defs>
    <style>
      .cls-1 {
        fill: #2d323b;
      }

      .cls-2 {
        fill: #fff;
        opacity: 0;
      }
    </style>
  </defs>
  <g id="daun" transform="translate(7 6)">
    <path id="Path_4" data-name="Path 4" class="cls-1" d="M830.221,645.978l-116.015.384c-30.779-9.248-56-41.37-56.155-89.53a136.386,136.386,0,0,1,1.639-21.669l93.445-20.994,72.086-16.194a143.377,143.377,0,0,1,14.808,15.4L771.1,549.77,738.58,566.942l36.54-12.606,75.841-26.165a183.932,183.932,0,0,1,12.611,22.611L840.69,574.43l25.886-16.947q.166.389.33.78C883.313,597.211,862.956,645.87,830.221,645.978Z" transform="translate(-351.051 -289.693)"/>
    <path id="Path_5" data-name="Path 5" class="cls-1" d="M813.253,459.2c-17.544,5.039-39.114,11.405-61.291,18.022-32.065,9.57-65.4,19.669-89.665,27.052l.016-.087a33.356,33.356,0,0,1,6.155-14.286c17.977-23.373,40.867-39.7,66.343-45.765h0a95.611,95.611,0,0,1,21.866-2.609C776.947,441.458,796.146,447.815,813.253,459.2Z" transform="translate(-353.148 -261.814)"/>
    <path id="Path_6" data-name="Path 6" class="cls-1" d="M207.811,606.752l-20.058,60.074-4.925,14.759a49.655,49.655,0,0,1-8.407,9.7h-.471c-25.272,0-48.22-1.3-65.13-3.411l2.354-18.044,5.051-38.7,6.458-49.561a91.9,91.9,0,0,1,11.96-6.585l5.694,51.4,2.688,24.249.779-25.965,1.615-53.894A107.821,107.821,0,0,1,161,566.99l8.458,19.284-4-19.932c.172-.02.344-.046.516-.066C191.65,563.183,214.856,585.636,207.811,606.752Z" transform="translate(-79.808 -323.282)"/>
    <path id="Path_7" data-name="Path 7" class="cls-1" d="M92.474,610.546c-.952,12.274-2.02,27.392-3.082,42.956-.891,13.084-1.771,26.476-2.566,38.745-.395,6.119-.769,11.96-1.108,17.345-2.875-.38-5.562-.789-8.038-1.215a92.3,92.3,0,0,1-6.241-13.534,79.118,79.118,0,0,1-4.555-36.64V658.2a73.038,73.038,0,0,1,3.27-14.587A75.128,75.128,0,0,1,92.474,610.546Z" transform="translate(-58.841 -345.287)"/>
    <rect id="Rectangle_69" data-name="Rectangle 69" class="cls-2" width="559" height="377" transform="translate(-7 -6)"/>
  </g>
</svg>
