<svg xmlns="http://www.w3.org/2000/svg" width="555.236" height="368" viewBox="0 0 555.236 368">
  <g id="Group_7" data-name="Group 7" transform="translate(0 0)">
    <path id="Path_4" data-name="Path 4" d="M830.221,645.978l-116.015.384c-30.779-9.248-56-41.37-56.155-89.53a136.386,136.386,0,0,1,1.639-21.669l93.445-20.994,72.086-16.194a143.377,143.377,0,0,1,14.808,15.4L771.1,549.77,738.58,566.942l36.54-12.606,75.841-26.165a183.932,183.932,0,0,1,12.611,22.611L840.69,574.43l25.886-16.947q.166.389.33.78C883.313,597.211,862.956,645.87,830.221,645.978Z" transform="translate(-351.051 -289.693)" fill="#2d323b"/>
    <path id="Path_5" data-name="Path 5" d="M813.253,459.2c-17.544,5.039-39.114,11.405-61.291,18.022-32.065,9.57-65.4,19.669-89.665,27.052l.016-.087a33.356,33.356,0,0,1,6.155-14.286c17.977-23.373,40.867-39.7,66.343-45.765h0a95.611,95.611,0,0,1,21.866-2.609C776.947,441.458,796.146,447.815,813.253,459.2Z" transform="translate(-353.148 -261.814)" fill="#2d323b"/>
    <path id="Path_6" data-name="Path 6" d="M207.811,606.752l-20.058,60.074-4.925,14.759a49.655,49.655,0,0,1-8.407,9.7h-.471c-25.272,0-48.22-1.3-65.13-3.411l2.354-18.044,5.051-38.7,6.458-49.561a91.9,91.9,0,0,1,11.96-6.585l5.694,51.4,2.688,24.249.779-25.965,1.615-53.894A107.821,107.821,0,0,1,161,566.99l8.458,19.284-4-19.932c.172-.02.344-.046.516-.066C191.65,563.183,214.856,585.636,207.811,606.752Z" transform="translate(-79.808 -323.282)" fill="#2d323b"/>
    <path id="Path_7" data-name="Path 7" d="M92.474,610.546c-.952,12.274-2.02,27.392-3.082,42.956-.891,13.084-1.771,26.476-2.566,38.745-.395,6.119-.769,11.96-1.108,17.345-2.875-.38-5.562-.789-8.038-1.215a92.3,92.3,0,0,1-6.241-13.534,79.118,79.118,0,0,1-4.555-36.64V658.2a73.038,73.038,0,0,1,3.27-14.587A75.128,75.128,0,0,1,92.474,610.546Z" transform="translate(-58.841 -345.287)" fill="#2d323b"/>
    <path id="Path_8" data-name="Path 8" d="M239.784,777.25c0,6.772-41.9,12.259-93.671,12.294h-.471c-25.272,0-48.22-1.3-65.13-3.411-.724-.1-1.437-.187-2.136-.284-2.875-.38-5.562-.79-8.037-1.215C58.51,782.575,51.5,780.019,51.5,777.25c0-2.242,4.586-4.338,12.6-6.15,4.231-.957,9.414-1.827,15.387-2.6q1.648-.22,3.381-.415c16.657-1.949,38.659-3.133,62.777-3.133,4.687,0,9.3.046,13.8.132C204.891,765.958,239.784,771.07,239.784,777.25Z" transform="translate(-51.5 -421.544)" fill="#3f3d56"/>
    <path id="Path_9" data-name="Path 9" d="M201.429,570.951l2.365,18.45s.946,6.15,1.892,9.462c0,0-.946,17.5,6.623,29.8l4.731,8.989.946,13.246,11.827,1.419-2.365-19.87s-.946-9.462,0-13.246-4.731-21.289-4.731-21.289,7.569-24.6,1.892-30.751S201.429,570.951,201.429,570.951Z" transform="translate(-125.544 -322.871)" fill="#a0616a"/>
    <path id="Path_10" data-name="Path 10" d="M226.969,726.3s-5.2,0-5.677,1.419-8.042,14.193-8.042,14.193-6.623,10.408,2.839,10.881,12.3-3.785,12.3-3.785,8.516-13.719,8.989-16.085-3.555-7.435-3.555-7.435S228.389,729.136,226.969,726.3Z" transform="translate(-130.269 -402.051)" fill="#2f2e41"/>
    <circle id="Ellipse_1" data-name="Ellipse 1" cx="16.085" cy="16.085" r="16.085" transform="translate(87.239 60.264)" fill="#a0616a"/>
    <path id="Path_11" data-name="Path 11" d="M222.5,247.124s0,17.5-6.15,18.924,8.515,17.5,16.558,15.612,11.354-14.666,11.354-14.666-7.1-8.989-4.258-13.72S222.5,247.124,222.5,247.124Z" transform="translate(-132.19 -165.807)" fill="#a0616a"/>
    <path id="Path_12" data-name="Path 12" d="M204.253,288.259a14.163,14.163,0,0,1-11.35-6.313s-6.628,1.109-7.574,1.582-17.5,5.677-21.289,16.558l15.139,19.4s-3.312,27.439,0,39.739a34.859,34.859,0,0,1-1.419,22.235s-1.419.473.946,1.419,56.77-9.935,57.716-12.773-.946-2.838.473-4.258,5.2-9.935,1.419-12.773-6.15-34.062-6.15-34.062l9.935-25.074s-18.157-14.511-24.69-12.7C217.409,281.24,216.08,288.259,204.253,288.259Z" transform="translate(-107.08 -182.578)" fill="#374765"/>
    <path id="Path_13" data-name="Path 13" d="M255.41,556.474s-.946,20.816.946,28.858,1.892,11.354,1.892,11.354-2.839,13.719-1.419,26.493-1.656,33.362-1.656,33.362l11.591,3.538,7.1-35.955s5.677-22.235,2.365-32.643c0,0,1.892-31.7,3.312-35.008S255.41,556.474,255.41,556.474Z" transform="translate(-152.086 -317.856)" fill="#a0616a"/>
    <path id="Path_14" data-name="Path 14" d="M222.506,217.234c.213-1.509.664-3.155,1.951-3.971,1.336-.848,3.06-.5,4.637-.385s3.511-.279,4.029-1.774c.323-.932-.026-2.045.478-2.893.8-1.349,3.254-1.195,3.676-2.707a11.926,11.926,0,0,1,.2-1.471,2.178,2.178,0,0,1,1.646-1.016,26.332,26.332,0,0,1,7.292-.643.969.969,0,0,0,.692-.137.846.846,0,0,0,.223-.389,5.312,5.312,0,0,0-1.135-4.891,11.956,11.956,0,0,0-4.228-3.021,30.963,30.963,0,0,0-11.409-3.032,14.815,14.815,0,0,0-8.756,1.731,12.392,12.392,0,0,0-2.108,1.681,18.507,18.507,0,0,0-5.2,10.348,23.31,23.31,0,0,0,1.271,11.587,12.079,12.079,0,0,0,4.1,5.888c1.068.734,1.989,1.412,2.433.165C222.763,220.983,222.3,218.7,222.506,217.234Z" transform="translate(-131.877 -138.02)" fill="#2f2e41"/>
    <path id="Path_15" data-name="Path 15" d="M190.1,463.743s-7.1,9.462-5.677,16.085,6.623,17.5,6.623,17.5-2.839,21.289,1.892,21.289,25.074-.946,25.547-3.312-1.419-26.02-1.419-26.02,2.365,20.816,3.785,20.816,26.02,2.365,26.966.946,2.839-37.847,2.839-37.847,2.58-17.18-5.57-19.471S190.1,463.743,190.1,463.743Z" transform="translate(-117.052 -267.703)" fill="#24305e"/>
    <path id="Path_16" data-name="Path 16" d="M255.125,752.775s-8.516-4.731-8.989-.946-5.677,17.5-5.677,17.5-5.2,10.881,6.15,11.354,14.193-4.731,14.193-7.1S259.529,755,259.529,755Z" transform="translate(-144.232 -414.336)" fill="#2f2e41"/>
    <path id="Path_17" data-name="Path 17" d="M313.954,356.951l2.365,20.816s2.839,11.354.946,16.085-8.989,26.493-8.989,26.493-1.892-11.827-6.623-13.246l2.839-26.966s-6.773-16.827-5.279-19.058S313.954,356.951,313.954,356.951Z" transform="translate(-173.729 -220.047)" fill="#a0616a"/>
    <path id="Path_18" data-name="Path 18" d="M162.171,359.755l.946,18.923a68.466,68.466,0,0,0,3.312,34.062l.946,7.569,6.15,11.827s1.419-11.354,4.258-11.354c0,0-2.839-7.569-1.892-11.827s-.473-26.966-.473-26.966l2.365-18.37Z" transform="translate(-106.156 -221.431)" fill="#a0616a"/>
    <path id="Path_19" data-name="Path 19" d="M300.579,305.542h5.2s12.3,28.385,7.569,28.858-19.87,4.258-20.343,2.365S300.579,305.542,300.579,305.542Z" transform="translate(-170.762 -194.658)" fill="#374765"/>
    <path id="Path_20" data-name="Path 20" d="M165.369,310.216l-4.258,4.258s-5.677,21.289-1.419,23.654,20.343,5.2,21.289,3.312S165.369,310.216,165.369,310.216Z" transform="translate(-104.15 -196.966)" fill="#374765"/>
    <path id="Path_21" data-name="Path 21" d="M683.849,101.208v328.08a14.748,14.748,0,0,1-14.744,14.734H535.915a14.718,14.718,0,0,1-14.744-14.734V101.208a14.743,14.743,0,0,1,14.745-14.744h19.93V89.02a12.141,12.141,0,0,0,12.139,12.142h67.74a12.041,12.041,0,0,0,7.2-2.369,11.293,11.293,0,0,0,1.194-1,12.105,12.105,0,0,0,3.745-8.771V86.464h21.243A14.739,14.739,0,0,1,683.849,101.208Z" transform="translate(-283.452 -86.464)" fill="#374765"/>
    <ellipse id="Ellipse_2" data-name="Ellipse 2" cx="37.96" cy="7.592" rx="37.96" ry="7.592" transform="translate(299.635 124.329)" opacity="0.1"/>
    <ellipse id="Ellipse_3" data-name="Ellipse 3" cx="37.96" cy="7.592" rx="37.96" ry="7.592" transform="translate(244.466 163.302)" opacity="0.1"/>
    <ellipse id="Ellipse_4" data-name="Ellipse 4" cx="37.96" cy="7.592" rx="37.96" ry="7.592" transform="translate(275.846 234.668)" opacity="0.1"/>
    <ellipse id="Ellipse_5" data-name="Ellipse 5" cx="37.96" cy="7.592" rx="37.96" ry="7.592" transform="translate(265.217 312.107)" opacity="0.1"/>
    <path id="Path_22" data-name="Path 22" d="M746.9,403.5H631.5V441.6l9.661-9.662H746.9Z" transform="translate(-311.873 -199.27)" fill="#f76c6c"/>
    <path id="Path_23" data-name="Path 23" d="M316,260H431.4V298.1l-9.661-9.662H316Z" transform="translate(-156.06 -128.402)" fill="#f76c6c"/>
    <rect id="Rectangle_34" data-name="Rectangle 34" width="64.921" height="5.264" transform="translate(345.373 211.132)" fill="#fff"/>
    <rect id="Rectangle_35" data-name="Rectangle 35" width="64.921" height="5.264" transform="translate(345.373 219.028)" fill="#fff"/>
    <rect id="Rectangle_36" data-name="Rectangle 36" width="64.921" height="5.264" transform="translate(179.612 139.007)" fill="#fff"/>
    <rect id="Rectangle_37" data-name="Rectangle 37" width="64.921" height="5.264" transform="translate(179.612 146.903)" fill="#fff"/>
    <path id="Path_24" data-name="Path 24" d="M884.64,118.642H667v71.872l18.221-18.221H884.64Z" transform="translate(-329.405 -58.592)" fill="#f76c6c"/>
    <rect id="Rectangle_38" data-name="Rectangle 38" width="149.817" height="12.147" transform="translate(371.507 72.197)" fill="#fff"/>
    <rect id="Rectangle_39" data-name="Rectangle 39" width="149.817" height="12.147" transform="translate(371.507 90.418)" fill="#fff"/>
    <path id="Path_25" data-name="Path 25" d="M619.964,666.141c5.54,10.274,17.3,14.684,17.3,14.684s2.776-12.247-2.764-22.521-17.3-14.684-17.3-14.684S614.425,655.867,619.964,666.141Z" transform="translate(-330.533 -361.621)" fill="#fff"/>
    <path id="Path_26" data-name="Path 26" d="M609.04,677.327c10,6.017,13.854,17.969,13.854,17.969s-12.364,2.2-22.366-3.821-13.854-17.969-13.854-17.969S599.039,671.309,609.04,677.327Z" transform="translate(-315.801 -376.187)" fill="#a8d0e6"/>
  </g>
</svg>
